<svg width="199" height="285" viewBox="0 0 199 285" fill="none" xmlns="http://www.w3.org/2000/svg">
<path fill-rule="evenodd" clip-rule="evenodd" d="M114.089 102.77C113.13 97.5857 110.7 92.8835 106.974 89.1579C103.249 85.4323 98.5463 83.0016 93.3623 82.0426L92.7348 103.397L114.089 102.77ZM87.3033 75.3561C96.1333 75.0997 104.857 78.2022 111.394 84.7385C117.93 91.2748 121.032 99.9987 120.776 108.829L86.2913 109.841L87.3033 75.3561ZM151.575 101.665C150.673 86.5416 144.552 72.6779 134.003 62.1287C123.454 51.5796 109.59 45.4587 94.4672 44.5571L94.2064 53.3827C106.859 54.4743 118.465 59.8041 127.396 68.7358C136.323 77.663 141.653 89.2684 142.749 101.926L151.575 101.665ZM88.3993 38.2241C106.727 37.6805 124.851 44.1373 138.423 57.7093C151.995 71.2814 158.452 89.4054 157.908 107.733L136.686 108.36C137.062 95.46 132.523 82.71 122.972 73.1596C113.422 63.6092 100.672 59.0705 87.7718 59.4462L88.3993 38.2241ZM189.334 100.551C188.667 75.3649 178.874 52.163 161.421 34.7107C143.969 17.2584 120.767 7.46497 95.5809 6.79764L95.3069 16.0961C117.881 16.9977 138.679 25.9602 154.425 41.7066C170.172 57.453 179.134 78.2508 180.036 100.825L189.334 100.551ZM89.5086 0.557421C117.475 -0.26459 145.127 9.57745 165.841 30.2913C186.555 51.0051 196.397 78.6574 195.575 106.623L173.822 107.26C174.485 84.8622 166.596 62.7165 150.006 46.126C133.416 29.5355 111.27 21.6469 88.8722 22.3098L89.5086 0.557421ZM75 48.6891V2.15043C31.8693 13.2515 0 52.404 0 99C0 122.95 8.41978 144.934 22.4608 162.153L96.0885 282.427C97.6487 284.976 101.351 284.976 102.912 282.427L174.073 166.181C186.355 152.647 194.979 135.733 198.384 117H143.311C134.666 131.945 118.507 142 100 142C72.3858 142 50 119.614 50 92C50 73.4929 60.055 57.3343 75 48.6891Z" fill="url(#paint0_linear_2_43)"/>
<defs>
<linearGradient id="paint0_linear_2_43" x1="99.1922" y1="0.509911" x2="99.1922" y2="284.339" gradientUnits="userSpaceOnUse">
<stop stop-color="#FBB040"/>
<stop offset="1" stop-color="#FB6440"/>
</linearGradient>
</defs>
</svg>
